<svg width="24" height="22" viewBox="0 0 24 22" fill="none" xmlns="http://www.w3.org/2000/svg">
    <path d="M23.1968 11.1133C23.1968 10.231 23.1182 9.58722 22.9481 8.91956H11.8906V12.9017H18.3811C18.2503 13.8913 17.5437 15.3816 15.9734 16.3831L15.9514 16.5164L19.4475 18.9841L19.6897 19.0061C21.9143 17.1343 23.1968 14.3801 23.1968 11.1133Z" fill="white"/>
    <path d="M11.8906 21.6052C15.0704 21.6052 17.7399 20.6514 19.6898 19.0061L15.9734 16.383C14.9789 17.015 13.6441 17.4561 11.8906 17.4561C8.77624 17.4561 6.13293 15.5843 5.19066 12.9971L5.05255 13.0078L1.41717 15.5711L1.36963 15.6916C3.30631 19.1968 7.2844 21.6052 11.8906 21.6052Z" fill="white"/>
    <path d="M5.19064 12.9971C4.94202 12.3294 4.79813 11.614 4.79813 10.8749C4.79813 10.1356 4.94202 9.42028 5.17756 8.75262L5.17097 8.61042L1.49004 6.00586L1.36961 6.05805C0.571411 7.51264 0.113403 9.14608 0.113403 10.8749C0.113403 12.6036 0.571411 14.237 1.36961 15.6916L5.19064 12.9971Z" fill="white"/>
    <path d="M11.891 4.2936C14.1025 4.2936 15.5942 5.16395 16.4448 5.89128L19.7686 2.93444C17.7273 1.20565 15.0708 0.144531 11.891 0.144531C7.28476 0.144531 3.30667 2.5529 1.37 6.05814L5.17795 8.7527C6.13329 6.16548 8.7766 4.2936 11.891 4.2936Z" fill="white"/>
</svg>
